<!-- Generated by IcoMoon.io -->
<svg version="1.1" xmlns="http://www.w3.org/2000/svg" width="32" height="32" viewBox="0 0 32 32">
<title>wellness</title>
<path d="M15.12 24.747c-0.187-0.16-4.693-3.92-4.987-9.48-0.067-1.4 0.133-2.773 0.6-4.133-1.547-0.693-3.36-1.093-5.413-1.213-0.52-0.013-1.040 0.16-1.413 0.507-0.387 0.36-0.613 0.84-0.627 1.36-0.067 1.8 0.12 6.347 3.24 9.587 2.053 2.133 4.96 3.267 8.627 3.387l-0.027-0.013z"></path>
<path d="M28.827 19.813c-0.253-0.187-0.587-0.427-1-0.667-0.48 0.933-1.093 1.853-1.893 2.693-2.080 2.173-5.533 3.347-9.147 3.56l0.573 0.373c0.453 0.333 2.013 0.72 3.68 0.907 0.28 0.027 0.56 0.040 0.827 0.040 4.387 0 6.72-3.973 7.36-5.253 0.28-0.573 0.107-1.28-0.4-1.653z"></path>
<path d="M3.173 19.813c0.253-0.187 0.587-0.427 1-0.667 0.48 0.933 1.093 1.853 1.893 2.693 2.080 2.173 5.533 3.347 9.147 3.56l-0.573 0.373c-0.453 0.333-2.013 0.72-3.68 0.907-0.28 0.027-0.56 0.040-0.827 0.040-4.387 0-6.72-3.973-7.36-5.253-0.28-0.573-0.107-1.28 0.4-1.653z"></path>
<path d="M16.853 24.747c0.187-0.16 4.693-3.92 4.987-9.48 0.067-1.4-0.133-2.773-0.6-4.133 1.547-0.693 3.36-1.093 5.413-1.213 0.52-0.027 1.040 0.16 1.413 0.507 0.387 0.347 0.613 0.827 0.627 1.36 0.067 1.8-0.12 6.347-3.24 9.587-2.053 2.133-4.96 3.267-8.627 3.387l0.027-0.013z"></path>
<path d="M16.973 5.68c-0.253-0.253-0.573-0.4-0.933-0.4 0 0 0 0-0.013 0-0.36 0-0.693 0.147-0.947 0.4-3.013 3.027-4.453 6.24-4.28 9.547 0.28 5.293 4.56 8.853 4.733 9l0.44 0.36 0.427-0.387c3.027-2.747 4.613-5.76 4.72-8.947 0.16-4.613-2.853-8.227-4.147-9.573z"></path>
</svg>
