<!-- Generated by IcoMoon.io -->
<svg version="1.1" xmlns="http://www.w3.org/2000/svg" width="32" height="32" viewBox="0 0 32 32">
<title>wellness</title>
<path d="M28.867 19.813c-0.467-0.347-1.24-0.853-2.2-1.24 1.347-2.627 1.453-5.453 1.4-6.76-0.013-0.347-0.16-0.653-0.413-0.88s-0.587-0.347-0.933-0.333c-2.36 0.133-4.333 0.693-5.973 1.6-0.813-3.12-2.8-5.493-3.8-6.52-0.253-0.253-0.587-0.4-0.933-0.4 0 0 0 0-0.013 0-0.36 0-0.693 0.147-0.947 0.4-2.040 2.067-3.347 4.227-3.92 6.44-1.627-0.867-3.56-1.4-5.853-1.533-0.347-0.013-0.68 0.107-0.933 0.333-0.253 0.24-0.4 0.547-0.413 0.893-0.040 1.307 0.053 4.12 1.4 6.747-0.96 0.387-1.733 0.893-2.2 1.24-0.507 0.387-0.667 1.080-0.387 1.667 0.64 1.28 2.973 5.253 7.36 5.253 0.267 0 0.533-0.013 0.827-0.040 2.893-0.32 4.347-1.053 5.080-1.827 0.733 0.76 2.187 1.507 5.080 1.827 0.28 0.027 0.56 0.040 0.827 0.040 4.387 0 6.72-3.973 7.36-5.253 0.267-0.573 0.093-1.28-0.413-1.653zM26.747 11.853c0.053 1.547-0.093 5.44-2.68 8.133-1.48 1.533-3.56 2.413-6.16 2.68 2.040-2.32 3.133-4.813 3.213-7.413 0.013-0.573-0.013-1.147-0.080-1.693 1.52-0.947 3.413-1.533 5.707-1.707zM16 6.613c1.187 1.213 3.92 4.493 3.787 8.6-0.080 2.653-1.373 5.187-3.813 7.56h-0.053c-1.053-1.027-3.613-3.893-3.8-7.627-0.147-2.92 1.16-5.787 3.88-8.533zM10.867 13.507c-0.067 0.573-0.107 1.147-0.080 1.72 0.173 3.28 1.867 5.88 3.187 7.427-2.547-0.28-4.587-1.16-6.040-2.68-2.587-2.693-2.733-6.587-2.747-8.067 2.293 0.147 4.173 0.693 5.68 1.6zM10.787 25.347c-3.947 0.427-6.093-2.987-6.84-4.48 0.427-0.32 1.173-0.8 2.093-1.147 0.28 0.413 0.6 0.813 0.973 1.187 1.88 1.947 4.533 3.013 7.88 3.173-0.56 0.453-1.693 1-4.107 1.267zM21.213 25.347c-2.413-0.267-3.547-0.827-4.080-1.267 3.36-0.16 6.013-1.227 7.893-3.173 0.36-0.373 0.68-0.773 0.96-1.187 0.92 0.347 1.64 0.827 2.080 1.147-0.747 1.493-2.907 4.907-6.853 4.48z"></path>
</svg>
