<?xml version="1.0" encoding="UTF-8" standalone="no"?><svg xmlns="http://www.w3.org/2000/svg" xmlns:xlink="http://www.w3.org/1999/xlink" fill="#000000" height="983.3" preserveAspectRatio="xMidYMid meet" version="1" viewBox="703.6 734.6 1045.4 983.3" width="1045.4" zoomAndPan="magnify"><g fill="#06477a" id="change1_1"><path d="M 751.144531 1187.101562 C 749.675781 1187.101562 748.191406 1186.898438 746.742188 1186.488281 C 740.527344 1184.75 735.917969 1179.511719 734.996094 1173.140625 L 704.902344 966.839844 C 703.597656 957.910156 709.78125 949.621094 718.691406 948.328125 C 727.695312 946.820312 735.90625 953.210938 737.195312 962.121094 L 761.996094 1132.070312 L 872.804688 998.21875 C 878.589844 991.289062 888.871094 990.328125 895.789062 996.058594 C 902.738281 1001.808594 903.695312 1012.089844 897.953125 1019.039062 L 763.71875 1181.179688 C 760.5625 1184.988281 755.921875 1187.101562 751.144531 1187.101562" fill="inherit"/><path d="M 1731.425781 1500.519531 C 1723.507812 1500.519531 1716.554688 1494.769531 1715.320312 1486.699219 L 1689 1316.890625 L 1579.40625 1451.839844 C 1573.71875 1458.8125 1563.472656 1459.921875 1556.433594 1454.222656 C 1549.4375 1448.53125 1548.386719 1438.242188 1554.0625 1431.25 L 1686.832031 1267.78125 C 1690.910156 1262.757812 1697.507812 1260.644531 1703.753906 1262.328125 C 1709.988281 1264.003906 1714.644531 1269.207031 1715.628906 1275.570312 L 1747.5625 1481.691406 C 1748.957031 1490.601562 1742.851562 1498.941406 1733.945312 1500.332031 C 1733.097656 1500.453125 1732.261719 1500.519531 1731.425781 1500.519531" fill="inherit"/><path d="M 1224.847656 1717.921875 C 982.335938 1717.921875 773.199219 1537.210938 738.371094 1297.578125 C 737.066406 1288.660156 743.253906 1280.371094 752.175781 1279.078125 C 761.039062 1277.523438 769.359375 1283.964844 770.664062 1292.882812 C 803.183594 1516.582031 998.429688 1685.28125 1224.847656 1685.28125 C 1449.285156 1685.28125 1644.328125 1518.261719 1678.464844 1296.757812 C 1679.832031 1287.859375 1688.234375 1281.738281 1697.078125 1283.113281 C 1705.984375 1284.480469 1712.085938 1292.820312 1710.722656 1301.734375 C 1674.136719 1539 1465.261719 1717.921875 1224.847656 1717.921875" fill="inherit"/><path d="M 1697.382812 1191.050781 C 1689.140625 1191.050781 1682.066406 1184.851562 1681.183594 1176.484375 C 1656.066406 943.164062 1459.898438 767.21875 1224.847656 767.21875 C 998.671875 767.21875 803.4375 935.691406 770.699219 1159.117188 C 769.40625 1168.03125 761.042969 1174.28125 752.195312 1172.890625 C 743.269531 1171.59375 737.101562 1163.300781 738.40625 1154.394531 C 773.472656 915.054688 982.589844 734.578125 1224.847656 734.578125 C 1476.621094 734.578125 1686.734375 923.054688 1713.632812 1172.984375 C 1714.601562 1181.953125 1708.109375 1189.996094 1699.152344 1190.953125 C 1698.550781 1191.019531 1697.960938 1191.050781 1697.382812 1191.050781" fill="inherit"/></g></svg>