<?xml version="1.0" encoding="UTF-8" standalone="no"?><svg xmlns="http://www.w3.org/2000/svg" xmlns:xlink="http://www.w3.org/1999/xlink" fill="#000000" height="574" preserveAspectRatio="xMidYMid meet" version="1" viewBox="-12.5 0.0 447.8 574.0" width="447.8" zoomAndPan="magnify"><g fill="#06477a" id="change1_1"><path d="M45.9,388.3c22,37.3,42.9,72.5,27,174c-0.4,2.4-2.5,4.2-4.8,4.2c-0.3,0-0.5,0-0.8-0.1 c-2.7-0.4-4.5-2.9-4.1-5.6c15.3-98.1-4.7-131.8-25.8-167.5c-10.3-17.4-21-35.4-28.1-61.2C-12.5,252.9,4,190.6,57,151.8l0.1-0.1 c1.5-1,36.9-25.1,65.2-30.5c2.7-0.5,5.2,1.2,5.7,3.9c0.5,2.7-1.2,5.2-3.9,5.7c-25.7,4.9-59.8,27.8-61.4,28.9 c-49.3,36.1-64.5,94.8-43.9,169.6C25.6,354,35.9,371.4,45.9,388.3z M213.4,467.8c-5.6-3.4-11.3-6.7-16.9-10.1 c-4.5-2.7-8.7,4.4-4.1,7.1c5.6,3.4,11.3,6.7,16.9,10.1C213.8,477.6,217.9,470.5,213.4,467.8z M370.4,388.5c8-6.2,18.5-9,28.5-7.7 c5.2,0.7,7.4-7.2,2.2-7.9c-13.3-1.8-25.9,1.6-36.5,9.8C360.4,386,366.3,391.7,370.4,388.5z M83.2,427.3 c18.7,33.2,13.8,72.7,8.9,108.8c-0.7,5.2,7.2,7.4,7.9,2.2c5.2-38.4,10.1-79.8-9.8-115.1C87.6,418.6,80.6,422.7,83.2,427.3z M89.5,552.8c-0.2,4.4-0.4,8.8-0.6,13.2c-0.2,5.3,7.9,5.3,8.2,0c0.2-4.4,0.4-8.8,0.6-13.2C97.9,547.5,89.8,547.5,89.5,552.8z M344.6,305.4c7.6-6,11.4-15.7,11.4-29c0-32.5-13.2-63.8-38.3-90.6c-28.3-30.2-61.4-34.7-62.8-34.9c-2.7-0.3-5.1,1.6-5.5,4.2 c-0.3,2.7,1.6,5.1,4.2,5.5c0.3,0,31.1,4.3,56.9,31.9c23.3,24.9,35.7,53.9,35.7,83.9c0,10.2-2.5,17.2-7.7,21.2 c-13.3,10.4-44.5,2.8-77.6-5.3c-44.3-10.8-94.5-23.1-127.4-0.3c-17.2,12-31,27.1-42.1,39.3c-10,11-20.4,22.4-25,20.9 c-1.2-0.4-4.3-2.5-7.8-13.8c-3.1-10.3-6-26.1-8.7-48.4c-2.8-23.3,1.2-44.6,12.2-65.2l0.2-0.4c0.2-0.4,17.8-41.4,54.6-53.1 c2.6-0.8,4-3.6,3.2-6.2c-0.8-2.6-3.6-4-6.2-3.2c-40.1,12.7-59,54.5-60.6,58.4c-11.9,22.4-16.3,45.5-13.2,70.8 c5.7,47.7,12,66.8,23.2,70.4c1.3,0.4,2.6,0.6,3.8,0.6c9.3,0,18.8-10.4,31.4-24.2c10.7-11.8,24.1-26.5,40.4-37.8 c29.2-20.3,77.1-8.6,119.4,1.7C295.6,310.9,327.5,318.7,344.6,305.4z M412.4,339.2c-9.8-14.5-20.1-27.2-23.5-31.4 c0.1-8-0.2-39.5-10.4-75.8c-6.8-24.3-16.7-45.7-29.3-63.5c-15.9-22.4-36.3-39.2-60.5-49.9c-23.9-10.6-55.2-8.5-56.5-8.4 c-2.7,0.2-4.7,2.5-4.6,5.2c0.2,2.7,2.5,4.7,5.2,4.6c0.3,0,30.2-2,51.8,7.6c41.1,18.2,69.4,54.1,84.3,106.9 c11.2,39.8,10.1,74.6,10,75l-0.1,1.9l1.2,1.5c0.1,0.1,12.7,15,24.1,31.9c20.3,30.2,18.8,39.7,17.8,41.9c-0.3,0.6-1.1,2.4-6,2.7 c-38.3,1.8-46.6,11.1-47.9,12.9l-0.8,1.2l-0.1,1.4c-3.3,70.1-7.6,87.4-9,91.4c-53.9,14.1-125.2-23.1-125.9-23.5 c-2.4-1.3-5.4-0.4-6.6,2c-1.3,2.4-0.4,5.4,2,6.6c1.8,0.9,26.4,13.8,57.9,21.7c-3.6,11.9-11.6,41.6-8.6,66.6 c0.3,2.5,2.4,4.3,4.9,4.3c0.2,0,0.4,0,0.6,0c2.7-0.3,4.6-2.8,4.3-5.5c-2.8-23.4,5.2-52.6,8.5-63.2c11.6,2.4,23.8,4,35.9,4 c10.6,0,21.1-1.2,31.1-4c4.1-0.7,5.8-6,7.6-15.9c2.8-15.8,5.2-43.3,7.1-82c2.8-1.9,12.7-6.9,39.5-8.2c9.1-0.4,13-4.9,14.5-8.6 C435.3,380.9,429.2,364.1,412.4,339.2z"/><path d="M219.9,261.1H136V97.7H96.3L177.9,0l81.7,97.7h-39.7V261.1z M145.8,251.2H210V87.9h28.6l-60.6-72.5 l-60.6,72.5h28.6V251.2z M199.4,193.3V96.6c0-2.7-2.2-4.9-4.9-4.9c-2.7,0-4.9,2.2-4.9,4.9v96.7c0,2.7,2.2,4.9,4.9,4.9 C197.2,198.2,199.4,196,199.4,193.3z M199.4,229.4v-17.8c0-2.7-2.2-4.9-4.9-4.9c-2.7,0-4.9,2.2-4.9,4.9v17.8c0,2.7,2.2,4.9,4.9,4.9 C197.2,234.3,199.4,232.1,199.4,229.4z"/></g></svg>