<?xml version="1.0" encoding="UTF-8" standalone="no"?><svg xmlns="http://www.w3.org/2000/svg" xmlns:xlink="http://www.w3.org/1999/xlink" fill="#06477a" height="46.1" preserveAspectRatio="xMidYMid meet" version="1" viewBox="8.9 8.9 46.1 46.1" width="46.1" zoomAndPan="magnify"><g id="change1_1"><path d="M54.77246,54.0874c-1.51562-.98486-2.93652-2.06787-4.44141-3.21484-3.17773-2.42139-6.46289-4.9248-10.62305-6.37109-1.2981-.45148-3.79059-1.00452-5.6264-1.38434,4.88379-1.5379,9.04626-5.33374,11.65668-7.71722,.45801-.41846,.86816-.79297,1.22559-1.10303,.89917-.7804,1.6051-1.50983,2.15729-2.20361,.84161,.51373,2.99939,1.823,5.13373,3.04297,.07812,.04492,.16309,.06592,.24805,.06592,.17285,0,.3418-.09033,.43456-.25195,.13673-.23975,.05372-.54492-.18652-.68213-2.07019-1.18298-4.16425-2.45172-5.04327-2.9884,.91034-1.45264,1.01221-2.7298,.31671-3.90027-.49042-.8266-.98065-1.28888-1.37445-1.55432,.72784-.89264,.73529-1.94208,.00726-3.18787-.35773-.61237-.81311-1.24414-1.40729-1.5946,.31921-.49542,.45062-1.2041,.34381-2.00403-.13867-1.03564-.70215-2.33789-1.87012-2.88672-.16138-.07568-.35065-.11932-.55133-.1488,.32745-.75378,.46509-1.82574-.20551-3.00452-1.3288-2.33661-4.5498-1.88324-6.82898-1.30945-.59973-.70233-2.28772-2.53528-3.69739-2.67542-.93018-.09296-2.02112,.62274-2.51111,.98828-1.81836-.93414-3.3855-.71307-3.98206-.56836-.91895,.22314-1.80957,.896-2.75391,1.60791-.94922,.71729-1.93262,1.45898-2.82129,1.5957-.73633,.11328-1.26074,.42432-1.55958,.92432-.18182,.30505-.24328,.62537-.25268,.90601-.7782-.13007-1.99036-.12036-2.96509,.85376-.75391,.75439-1.59473,2.05664-1.48047,3.24463,.0271,.28235,.11377,.54034,.24341,.77551-.58881,.20013-1.09308,.55713-1.46118,1.12341-.83008,1.27539-1.12695,2.25586-.93359,3.08594,.10785,.46643,.37036,.87042,.78668,1.22644-.04095,.03601-.09503,.06006-.13141,.10022-.70605,.78027-1.06445,1.97754-.87305,2.91211,.05286,.25928,.15649,.48627,.28802,.68958-1.32269,1.07202-1.37585,2.82104-1.14532,3.91168l-3.66418,2.41534c-.23047,.15186-.29395,.46191-.1416,.69287,.0957,.14551,.25488,.22461,.41699,.22461,.09473,0,.19043-.02686,.27539-.08252l3.8551-2.5412c.08862-.03491,.16785-.08826,.22107-.18097,.00488-.00342,.39551-.35596,2.0127-.01025,1.08594,.23047,1.99414,.08691,2.70605-.42529,.66302-.47772,.98718-1.16602,1.14563-1.65967,.52295,.16888,1.00201,.24902,1.41492,.24902,.55469,0,1-.12646,1.30664-.31055,.39258-.23535,1.58496-1.55664,1.48633-2.90625-.01544-.20587-.06604-.43951-.17609-.67676,.50195-.11432,1.08795-.40155,1.50323-1.09863,.74402-1.24854,.66895-2.39587-.19702-3.47449,1.53784-.71729,1.82593-2.5011,1.74194-3.40686-.02637-.2749-.27832-.47607-.54395-.45166-.27539,.02588-.47754,.26904-.45215,.54443,.00195,.02002,.16797,2.00977-1.37695,2.51074-.0401,.01294-.07141,.03802-.10559,.05939-.30457-.25623-.63965-.51007-1.04187-.75909-1.80048-1.1142-4.00226-2.01471-5.78375-1.95953-.21606-.18127-.35443-.39636-.38129-.67279-.0752-.78369,.56543-1.81543,1.19238-2.44238,.8457-.84497,1.99286-.62842,2.45294-.49548,.35516,1.03815,1.4353,2.6311,3.59198,2.67224,.03027,.00049,.05957,.00098,.08887,.00098,1.27441-.00049,2.23535-.51855,3.08496-.97656,1.03418-.55957,1.66016-.85645,2.46387-.46777,.16602,.08008,.36621,.06152,.51367-.04834,.04004-.02979,4.01953-2.95605,6.6084-3.70459,2.99512-.8667,5.91602-1.40869,6.99121,.48389,.70276,1.23553,.17914,2.17719-.0708,2.51971-1.92242,.24884-4.34851,1.40472-4.70264,1.57745-.24805,.12109-.35059,.42041-.22949,.66846,.12207,.24902,.41992,.35107,.66895,.22998,1.20081-.58563,3.11255-1.3288,4.42212-1.49847,.09027,.01605,.18219,.01422,.26801-.01953,.34271-.02289,.64325-.00775,.84406,.08685,.80469,.37793,1.20605,1.375,1.30469,2.11377,.08691,.6543-.03613,1.24854-.30762,1.479-.04291,.03656-.07288,.0816-.10022,.1275-.19946,.01129-.4071,.04462-.63123,.12543-1.05176,.375-3.34766,1.6167-3.44531,1.66943-.24219,.13135-.33301,.43457-.20117,.67773,.13086,.24414,.43555,.33154,.67773,.20117,.02344-.01221,2.3252-1.25684,3.30469-1.60693,.59473-.21338,1.09473-.06934,1.89453,1.29785,.6709,1.14795,.53906,1.84619-.48633,2.57666-1.07227,.76416-3.875,2.37012-3.90332,2.38623-.24023,.13721-.32324,.44287-.18555,.68262,.0918,.16113,.26074,.25146,.43359,.25146,.08496,0,.16992-.021,.24805-.06592,.11719-.06689,2.87402-1.64697,3.9873-2.43994,.24756,.1192,.73914,.44977,1.27734,1.35645,.5791,.97461,.77734,2.49805-2.85742,5.65234-.3623,.31445-.77832,.69434-1.24414,1.11914-2.87891,2.62891-7.69629,7.02832-13.14746,7.96143-.07623,.01306-.15192,.03577-.22803,.05023-.03204,.00385-.06177,.01038-.0921,.02026-3.073,.60852-6.0755,2.36957-9.53436,4.41046-3.61914,2.13623-7.72168,4.55713-12.7041,6.03223-.26465,.07861-.41602,.35645-.33789,.62158,.06445,.21729,.26367,.35791,.47949,.35791,.04688,0,.09473-.00635,.1416-.02051,5.10059-1.50977,9.25977-3.96436,12.92871-6.12988,3.37408-1.99115,6.30341-3.70874,9.20471-4.28815,.79517,.15216,5.67877,1.09912,7.60583,1.7691,4.00879,1.39404,7.22949,3.84863,10.34473,6.22217,1.45312,1.10742,2.95605,2.25244,4.50293,3.2583,.08398,.05469,.17871,.08057,.27246,.08057,.16309,0,.32324-.08008,.41895-.22754,.15039-.23145,.08496-.54102-.14648-.69189ZM17.97852,31.67627c-.47266,.33691-1.11621,.42236-1.90625,.25391-1.08789-.23096-1.79785-.19873-2.25781-.07568-.09143-.7475-.04614-1.9917,.98676-2.70715,.02484,.01007,.04974,.0199,.07574,.026,.02405,.0058,2.4317,.56671,3.90924,1.27521-.10272,.34967-.32947,.88647-.80768,1.22772Zm3.94434-1.77197c-.33008,.19824-1.25781,.35303-2.62891-.32227-1.46484-.72021-3.74023-1.27637-4.13574-1.37012-.23047-.12012-.37305-.32422-.43359-.62305-.12793-.62207,.14551-1.49902,.63574-2.04053,.21191-.23584,1.32714-.83447,6.65918,1.38184,.84766,.35205,.88965,.82568,.9043,.98096,.07227,.80908-.76367,1.83984-1.00098,1.99316Zm.82422-7.95068c2.77539,1.71777,2.01074,2.99902,1.64355,3.61475-.49121,.82422-1.42383,.6748-1.46191,.66895l-.00769,.04254c-.15186-.09723-.31757-.19067-.51672-.2735-3.16284-1.31403-5.31958-1.85419-6.63513-1.66089l.02576-.04321c-.5-.29883-.77246-.60938-.8584-.97754-.125-.53955,.13574-1.29688,.79785-2.31494,1.08203-1.66357,4.39355-.67822,7.0127,.94385Zm7.3877-6.2124c-1.16992-.4248-2.14746,.09863-3.08887,.60791-.7998,.43115-1.6748,.86816-2.67969,.85596-2.16406-.04102-2.70605-2.10059-2.74316-2.23633-.00195-.00537-.17188-.52539,.04883-.89502,.1377-.23145,.4248-.38232,.85254-.44824,1.1377-.1748,2.22266-.99365,3.27148-1.78564,.85938-.64795,1.66992-1.26025,2.3877-1.43457,.24414-.05908,.58496-.11572,.99805-.11572,1.23145,0,3.10059,.50342,4.93164,2.93945-1.74121,.93848-3.38184,2.08447-3.97852,2.51221Zm4.87207-2.96973c-.01367-.0293-.03027-.05762-.05078-.08496-.6936-.9342-1.40442-1.61499-2.09772-2.11505,.48206-.31183,1.07513-.5993,1.48346-.56268,.75146,.07483,1.9032,1.08984,2.71735,1.97314-.07715,.02216-.15802,.04517-.23004,.06592-.57031,.16504-1.19141,.42041-1.82227,.72363Z"/></g></svg>